<svg xmlns="http://www.w3.org/2000/svg" xmlns:xlink="http://www.w3.org/1999/xlink" contentStyleType="text/css" data-diagram-type="CLASS" height="735px" preserveAspectRatio="none" style="width:1740px;height:735px;background:#FFFFFF;" version="1.1" viewBox="0 0 1740 735" width="1740px" zoomAndPan="magnify"><defs/><g><!--class User--><g class="entity" data-entity="User" data-source-line="2" data-uid="ent0002" id="entity_User"><rect fill="#F1F1F1" height="259.8594" rx="2.5" ry="2.5" style="stroke:#181818;stroke-width:0.5;" width="476.2217" x="7" y="7"/><ellipse cx="224.9058" cy="23" fill="#ADD1B2" rx="11" ry="11" style="stroke:#181818;stroke-width:1;"/><path d="M227.8745,28.6406 Q227.2964,28.9375 226.6558,29.0781 Q226.0151,29.2344 225.312,29.2344 Q222.812,29.2344 221.4839,27.5938 Q220.1714,25.9375 220.1714,22.8125 Q220.1714,19.6875 221.4839,18.0313 Q222.812,16.375 225.312,16.375 Q226.0151,16.375 226.6558,16.5313 Q227.312,16.6875 227.8745,16.9844 L227.8745,19.7031 Q227.2495,19.125 226.6558,18.8594 Q226.062,18.5781 225.437,18.5781 Q224.0933,18.5781 223.4058,19.6563 Q222.7183,20.7188 222.7183,22.8125 Q222.7183,24.9063 223.4058,25.9844 Q224.0933,27.0469 225.437,27.0469 Q226.062,27.0469 226.6558,26.7813 Q227.2495,26.5 227.8745,25.9219 L227.8745,28.6406 Z " fill="#000000"/><text fill="#000000" font-family="sans-serif" font-size="14" lengthAdjust="spacing" textLength="31.9102" x="245.4058" y="27.8467">User</text><line style="stroke:#181818;stroke-width:0.5;" x1="8" x2="482.2217" y1="39" y2="39"/><ellipse cx="18" cy="52.6484" fill="none" rx="3" ry="3" style="stroke:#038048;stroke-width:1;"/><text fill="#000000" font-family="sans-serif" font-size="14" lengthAdjust="spacing" textLength="111.5078" x="27" y="55.9951">id: Integer &#171;PK&#187;</text><ellipse cx="18" cy="68.9453" fill="none" rx="3" ry="3" style="stroke:#038048;stroke-width:1;"/><text fill="#000000" font-family="sans-serif" font-size="14" lengthAdjust="spacing" textLength="121.1875" x="27" y="72.292">username: String</text><ellipse cx="18" cy="85.2422" fill="none" rx="3" ry="3" style="stroke:#038048;stroke-width:1;"/><text fill="#000000" font-family="sans-serif" font-size="14" lengthAdjust="spacing" textLength="89.5576" x="27" y="88.5889">email: String</text><ellipse cx="18" cy="101.5391" fill="none" rx="3" ry="3" style="stroke:#038048;stroke-width:1;"/><text fill="#000000" font-family="sans-serif" font-size="14" lengthAdjust="spacing" textLength="147.4375" x="27" y="104.8857">password_hash: Text</text><ellipse cx="18" cy="117.8359" fill="none" rx="3" ry="3" style="stroke:#038048;stroke-width:1;"/><text fill="#000000" font-family="sans-serif" font-size="14" lengthAdjust="spacing" textLength="162.4492" x="27" y="121.1826">created_at: Timestamp</text><ellipse cx="18" cy="134.1328" fill="none" rx="3" ry="3" style="stroke:#038048;stroke-width:1;"/><text fill="#000000" font-family="sans-serif" font-size="14" lengthAdjust="spacing" textLength="127.9072" x="27" y="137.4795">is_admin: Boolean</text><ellipse cx="18" cy="150.4297" fill="none" rx="3" ry="3" style="stroke:#038048;stroke-width:1;"/><text fill="#000000" font-family="sans-serif" font-size="14" lengthAdjust="spacing" textLength="147.335" x="27" y="153.7764">is_premium: Boolean</text><line style="stroke:#181818;stroke-width:0.5;" x1="8" x2="482.2217" y1="161.0781" y2="161.0781"/><ellipse cx="18" cy="174.7266" fill="#84BE84" rx="3" ry="3" style="stroke:#038048;stroke-width:1;"/><text fill="#000000" font-family="sans-serif" font-size="14" lengthAdjust="spacing" textLength="327.0039" x="27" y="178.0732">login(email: String, password: String): Boolean</text><ellipse cx="18" cy="191.0234" fill="#84BE84" rx="3" ry="3" style="stroke:#038048;stroke-width:1;"/><text fill="#000000" font-family="sans-serif" font-size="14" lengthAdjust="spacing" textLength="93.9873" x="27" y="194.3701">logout(): void</text><ellipse cx="18" cy="207.3203" fill="#84BE84" rx="3" ry="3" style="stroke:#038048;stroke-width:1;"/><text fill="#000000" font-family="sans-serif" font-size="14" lengthAdjust="spacing" textLength="450.2217" x="27" y="210.667">register(username: String, email: String, password: String): void</text><ellipse cx="18" cy="223.6172" fill="#84BE84" rx="3" ry="3" style="stroke:#038048;stroke-width:1;"/><text fill="#000000" font-family="sans-serif" font-size="14" lengthAdjust="spacing" textLength="120.6816" x="27" y="226.9639">editProfile(): void</text><ellipse cx="18" cy="239.9141" fill="#84BE84" rx="3" ry="3" style="stroke:#038048;stroke-width:1;"/><text fill="#000000" font-family="sans-serif" font-size="14" lengthAdjust="spacing" textLength="137.9082" x="27" y="243.2607">deleteProfile(): void</text><ellipse cx="18" cy="256.2109" fill="#84BE84" rx="3" ry="3" style="stroke:#038048;stroke-width:1;"/><text fill="#000000" font-family="sans-serif" font-size="14" lengthAdjust="spacing" textLength="183.4014" x="27" y="259.5576">upgradeToPremiun(): void</text></g><!--class Friend--><g class="entity" data-entity="Friend" data-source-line="20" data-uid="ent0003" id="entity_Friend"><rect fill="#F1F1F1" height="162.0781" rx="2.5" ry="2.5" style="stroke:#181818;stroke-width:0.5;" width="244.873" x="66.67" y="360.16"/><ellipse cx="162.8209" cy="376.16" fill="#ADD1B2" rx="11" ry="11" style="stroke:#181818;stroke-width:1;"/><path d="M165.7896,381.8006 Q165.2115,382.0975 164.5709,382.2381 Q163.9303,382.3944 163.2271,382.3944 Q160.7271,382.3944 159.399,380.7538 Q158.0865,379.0975 158.0865,375.9725 Q158.0865,372.8475 159.399,371.1913 Q160.7271,369.535 163.2271,369.535 Q163.9303,369.535 164.5709,369.6913 Q165.2271,369.8475 165.7896,370.1444 L165.7896,372.8631 Q165.1646,372.285 164.5709,372.0194 Q163.9771,371.7381 163.3521,371.7381 Q162.0084,371.7381 161.3209,372.8163 Q160.6334,373.8788 160.6334,375.9725 Q160.6334,378.0663 161.3209,379.1444 Q162.0084,380.2069 163.3521,380.2069 Q163.9771,380.2069 164.5709,379.9413 Q165.1646,379.66 165.7896,379.0819 L165.7896,381.8006 Z " fill="#000000"/><text fill="#000000" font-family="sans-serif" font-size="14" lengthAdjust="spacing" textLength="44.0713" x="183.3209" y="381.0067">Friend</text><line style="stroke:#181818;stroke-width:0.5;" x1="67.67" x2="310.543" y1="392.16" y2="392.16"/><ellipse cx="77.67" cy="405.8084" fill="none" rx="3" ry="3" style="stroke:#038048;stroke-width:1;"/><text fill="#000000" font-family="sans-serif" font-size="14" lengthAdjust="spacing" textLength="157.5615" x="86.67" y="409.1551">user1_id: Integer &#171;FK&#187;</text><ellipse cx="77.67" cy="422.1053" fill="none" rx="3" ry="3" style="stroke:#038048;stroke-width:1;"/><text fill="#000000" font-family="sans-serif" font-size="14" lengthAdjust="spacing" textLength="157.5615" x="86.67" y="425.452">user2_id: Integer &#171;FK&#187;</text><ellipse cx="77.67" cy="438.4022" fill="none" rx="3" ry="3" style="stroke:#038048;stroke-width:1;"/><text fill="#000000" font-family="sans-serif" font-size="14" lengthAdjust="spacing" textLength="165.0195" x="86.67" y="441.7489">is_clear_user1: Boolean</text><ellipse cx="77.67" cy="454.6991" fill="none" rx="3" ry="3" style="stroke:#038048;stroke-width:1;"/><text fill="#000000" font-family="sans-serif" font-size="14" lengthAdjust="spacing" textLength="165.0195" x="86.67" y="458.0457">is_clear_user2: Boolean</text><line style="stroke:#181818;stroke-width:0.5;" x1="67.67" x2="310.543" y1="465.3475" y2="465.3475"/><ellipse cx="77.67" cy="478.9959" fill="#84BE84" rx="3" ry="3" style="stroke:#038048;stroke-width:1;"/><text fill="#000000" font-family="sans-serif" font-size="14" lengthAdjust="spacing" textLength="191.7549" x="86.67" y="482.3426">addFriend(user: User): void</text><ellipse cx="77.67" cy="495.2928" fill="#84BE84" rx="3" ry="3" style="stroke:#038048;stroke-width:1;"/><text fill="#000000" font-family="sans-serif" font-size="14" lengthAdjust="spacing" textLength="218.873" x="86.67" y="498.6395">removeFriend(user: User): void</text><ellipse cx="77.67" cy="511.5897" fill="#84BE84" rx="3" ry="3" style="stroke:#038048;stroke-width:1;"/><text fill="#000000" font-family="sans-serif" font-size="14" lengthAdjust="spacing" textLength="190.0254" x="86.67" y="514.9364">viewFriendStatistics(): void</text></g><!--class UserState--><g class="entity" data-entity="UserState" data-source-line="32" data-uid="ent0004" id="entity_UserState"><rect fill="#F1F1F1" height="194.6719" rx="2.5" ry="2.5" style="stroke:#181818;stroke-width:0.5;" width="526.3701" x="776.93" y="343.86"/><ellipse cx="1001.3812" cy="359.86" fill="#ADD1B2" rx="11" ry="11" style="stroke:#181818;stroke-width:1;"/><path d="M1004.3499,365.5006 Q1003.7718,365.7975 1003.1312,365.9381 Q1002.4905,366.0944 1001.7874,366.0944 Q999.2874,366.0944 997.9593,364.4538 Q996.6468,362.7975 996.6468,359.6725 Q996.6468,356.5475 997.9593,354.8913 Q999.2874,353.235 1001.7874,353.235 Q1002.4905,353.235 1003.1312,353.3913 Q1003.7874,353.5475 1004.3499,353.8444 L1004.3499,356.5631 Q1003.7249,355.985 1003.1312,355.7194 Q1002.5374,355.4381 1001.9124,355.4381 Q1000.5687,355.4381 999.8812,356.5163 Q999.1937,357.5788 999.1937,359.6725 Q999.1937,361.7663 999.8812,362.8444 Q1000.5687,363.9069 1001.9124,363.9069 Q1002.5374,363.9069 1003.1312,363.6413 Q1003.7249,363.36 1004.3499,362.7819 L1004.3499,365.5006 Z " fill="#000000"/><text fill="#000000" font-family="sans-serif" font-size="14" lengthAdjust="spacing" textLength="68.9678" x="1021.8812" y="364.7067">UserState</text><line style="stroke:#181818;stroke-width:0.5;" x1="777.93" x2="1302.3001" y1="375.86" y2="375.86"/><ellipse cx="787.93" cy="389.5084" fill="none" rx="3" ry="3" style="stroke:#038048;stroke-width:1;"/><text fill="#000000" font-family="sans-serif" font-size="14" lengthAdjust="spacing" textLength="111.5078" x="796.93" y="392.8551">id: Integer &#171;PK&#187;</text><ellipse cx="787.93" cy="405.8053" fill="none" rx="3" ry="3" style="stroke:#038048;stroke-width:1;"/><text fill="#000000" font-family="sans-serif" font-size="14" lengthAdjust="spacing" textLength="148.6543" x="796.93" y="409.152">user_id: Integer &#171;FK&#187;</text><ellipse cx="787.93" cy="422.1022" fill="none" rx="3" ry="3" style="stroke:#038048;stroke-width:1;"/><text fill="#000000" font-family="sans-serif" font-size="14" lengthAdjust="spacing" textLength="97.7676" x="796.93" y="425.4489">value: Integer</text><ellipse cx="787.93" cy="438.3991" fill="none" rx="3" ry="3" style="stroke:#038048;stroke-width:1;"/><text fill="#000000" font-family="sans-serif" font-size="14" lengthAdjust="spacing" textLength="117.9473" x="796.93" y="441.7457">description: Text</text><ellipse cx="787.93" cy="454.6959" fill="none" rx="3" ry="3" style="stroke:#038048;stroke-width:1;"/><text fill="#000000" font-family="sans-serif" font-size="14" lengthAdjust="spacing" textLength="162.4492" x="796.93" y="458.0426">created_at: Timestamp</text><line style="stroke:#181818;stroke-width:0.5;" x1="777.93" x2="1302.3001" y1="465.3444" y2="465.3444"/><ellipse cx="787.93" cy="478.9928" fill="#84BE84" rx="3" ry="3" style="stroke:#038048;stroke-width:1;"/><text fill="#000000" font-family="sans-serif" font-size="14" lengthAdjust="spacing" textLength="437.8418" x="796.93" y="482.3395">recordEmotionalState(value: Integer, description: String): void</text><ellipse cx="787.93" cy="495.2897" fill="#84BE84" rx="3" ry="3" style="stroke:#038048;stroke-width:1;"/><text fill="#000000" font-family="sans-serif" font-size="14" lengthAdjust="spacing" textLength="276.9033" x="796.93" y="498.6364">viewEmotionHistory(): List&lt;UserState&gt;</text><ellipse cx="787.93" cy="511.5866" fill="#84BE84" rx="3" ry="3" style="stroke:#038048;stroke-width:1;"/><text fill="#000000" font-family="sans-serif" font-size="14" lengthAdjust="spacing" textLength="273.2393" x="796.93" y="514.9332">deleteEmotionRecord(id: Integer): void</text><ellipse cx="787.93" cy="527.8834" fill="#84BE84" rx="3" ry="3" style="stroke:#038048;stroke-width:1;"/><text fill="#000000" font-family="sans-serif" font-size="14" lengthAdjust="spacing" textLength="500.3701" x="796.93" y="531.2301">editEmotionRecord(id: Integer, value: Integer, description: String): void</text></g><!--class Tag--><g class="entity" data-entity="Tag" data-source-line="46" data-uid="ent0005" id="entity_Tag"><rect fill="#F1F1F1" height="145.7813" rx="2.5" ry="2.5" style="stroke:#181818;stroke-width:0.5;" width="395.3457" x="346.44" y="368.31"/><ellipse cx="526.8541" cy="384.31" fill="#ADD1B2" rx="11" ry="11" style="stroke:#181818;stroke-width:1;"/><path d="M529.8228,389.9506 Q529.2447,390.2475 528.6041,390.3881 Q527.9634,390.5444 527.2603,390.5444 Q524.7603,390.5444 523.4322,388.9038 Q522.1197,387.2475 522.1197,384.1225 Q522.1197,380.9975 523.4322,379.3413 Q524.7603,377.685 527.2603,377.685 Q527.9634,377.685 528.6041,377.8413 Q529.2603,377.9975 529.8228,378.2944 L529.8228,381.0131 Q529.1978,380.435 528.6041,380.1694 Q528.0103,379.8881 527.3853,379.8881 Q526.0416,379.8881 525.3541,380.9663 Q524.6666,382.0288 524.6666,384.1225 Q524.6666,386.2163 525.3541,387.2944 Q526.0416,388.3569 527.3853,388.3569 Q528.0103,388.3569 528.6041,388.0913 Q529.1978,387.81 529.8228,387.2319 L529.8228,389.9506 Z " fill="#000000"/><text fill="#000000" font-family="sans-serif" font-size="14" lengthAdjust="spacing" textLength="26.0176" x="547.3541" y="389.1567">Tag</text><line style="stroke:#181818;stroke-width:0.5;" x1="347.44" x2="740.7857" y1="400.31" y2="400.31"/><ellipse cx="357.44" cy="413.9584" fill="none" rx="3" ry="3" style="stroke:#038048;stroke-width:1;"/><text fill="#000000" font-family="sans-serif" font-size="14" lengthAdjust="spacing" textLength="111.5078" x="366.44" y="417.3051">id: Integer &#171;PK&#187;</text><ellipse cx="357.44" cy="430.2553" fill="none" rx="3" ry="3" style="stroke:#038048;stroke-width:1;"/><text fill="#000000" font-family="sans-serif" font-size="14" lengthAdjust="spacing" textLength="90.6514" x="366.44" y="433.602">name: String</text><ellipse cx="357.44" cy="446.5522" fill="none" rx="3" ry="3" style="stroke:#038048;stroke-width:1;"/><text fill="#000000" font-family="sans-serif" font-size="14" lengthAdjust="spacing" textLength="78.7021" x="366.44" y="449.8989">emoji: Text</text><line style="stroke:#181818;stroke-width:0.5;" x1="347.44" x2="740.7857" y1="457.2006" y2="457.2006"/><ellipse cx="357.44" cy="470.8491" fill="#84BE84" rx="3" ry="3" style="stroke:#038048;stroke-width:1;"/><text fill="#000000" font-family="sans-serif" font-size="14" lengthAdjust="spacing" textLength="283.5615" x="366.44" y="474.1957">create(name: String, emoji: String): void</text><ellipse cx="357.44" cy="487.1459" fill="#84BE84" rx="3" ry="3" style="stroke:#038048;stroke-width:1;"/><text fill="#000000" font-family="sans-serif" font-size="14" lengthAdjust="spacing" textLength="166.127" x="366.44" y="490.4926">delete(id: Integer): void</text><ellipse cx="357.44" cy="503.4428" fill="#84BE84" rx="3" ry="3" style="stroke:#038048;stroke-width:1;"/><text fill="#000000" font-family="sans-serif" font-size="14" lengthAdjust="spacing" textLength="369.3457" x="366.44" y="506.7895">update(id: Integer, name: String, emoji: String): void</text></g><!--class EmotionalTag--><g class="entity" data-entity="EmotionalTag" data-source-line="57" data-uid="ent0006" id="entity_EmotionalTag"><rect fill="#F1F1F1" height="145.7813" rx="2.5" ry="2.5" style="stroke:#181818;stroke-width:0.5;" width="395.3457" x="1338.44" y="368.31"/><ellipse cx="1483.6866" cy="384.31" fill="#ADD1B2" rx="11" ry="11" style="stroke:#181818;stroke-width:1;"/><path d="M1486.6553,389.9506 Q1486.0772,390.2475 1485.4366,390.3881 Q1484.796,390.5444 1484.0928,390.5444 Q1481.5928,390.5444 1480.2647,388.9038 Q1478.9522,387.2475 1478.9522,384.1225 Q1478.9522,380.9975 1480.2647,379.3413 Q1481.5928,377.685 1484.0928,377.685 Q1484.796,377.685 1485.4366,377.8413 Q1486.0928,377.9975 1486.6553,378.2944 L1486.6553,381.0131 Q1486.0303,380.435 1485.4366,380.1694 Q1484.8428,379.8881 1484.2178,379.8881 Q1482.8741,379.8881 1482.1866,380.9663 Q1481.4991,382.0288 1481.4991,384.1225 Q1481.4991,386.2163 1482.1866,387.2944 Q1482.8741,388.3569 1484.2178,388.3569 Q1484.8428,388.3569 1485.4366,388.0913 Q1486.0303,387.81 1486.6553,387.2319 L1486.6553,389.9506 Z " fill="#000000"/><text fill="#000000" font-family="sans-serif" font-size="14" lengthAdjust="spacing" textLength="96.3525" x="1504.1866" y="389.1567">EmotionalTag</text><line style="stroke:#181818;stroke-width:0.5;" x1="1339.44" x2="1732.7857" y1="400.31" y2="400.31"/><ellipse cx="1349.44" cy="413.9584" fill="none" rx="3" ry="3" style="stroke:#038048;stroke-width:1;"/><text fill="#000000" font-family="sans-serif" font-size="14" lengthAdjust="spacing" textLength="111.5078" x="1358.44" y="417.3051">id: Integer &#171;PK&#187;</text><ellipse cx="1349.44" cy="430.2553" fill="none" rx="3" ry="3" style="stroke:#038048;stroke-width:1;"/><text fill="#000000" font-family="sans-serif" font-size="14" lengthAdjust="spacing" textLength="90.6514" x="1358.44" y="433.602">name: String</text><ellipse cx="1349.44" cy="446.5522" fill="none" rx="3" ry="3" style="stroke:#038048;stroke-width:1;"/><text fill="#000000" font-family="sans-serif" font-size="14" lengthAdjust="spacing" textLength="78.7021" x="1358.44" y="449.8989">emoji: Text</text><line style="stroke:#181818;stroke-width:0.5;" x1="1339.44" x2="1732.7857" y1="457.2006" y2="457.2006"/><ellipse cx="1349.44" cy="470.8491" fill="#84BE84" rx="3" ry="3" style="stroke:#038048;stroke-width:1;"/><text fill="#000000" font-family="sans-serif" font-size="14" lengthAdjust="spacing" textLength="283.5615" x="1358.44" y="474.1957">create(name: String, emoji: String): void</text><ellipse cx="1349.44" cy="487.1459" fill="#84BE84" rx="3" ry="3" style="stroke:#038048;stroke-width:1;"/><text fill="#000000" font-family="sans-serif" font-size="14" lengthAdjust="spacing" textLength="166.127" x="1358.44" y="490.4926">delete(id: Integer): void</text><ellipse cx="1349.44" cy="503.4428" fill="#84BE84" rx="3" ry="3" style="stroke:#038048;stroke-width:1;"/><text fill="#000000" font-family="sans-serif" font-size="14" lengthAdjust="spacing" textLength="369.3457" x="1358.44" y="506.7895">update(id: Integer, name: String, emoji: String): void</text></g><!--class UserStateTag--><g class="entity" data-entity="UserStateTag" data-source-line="68" data-uid="ent0007" id="entity_UserStateTag"><rect fill="#F1F1F1" height="113.1875" rx="2.5" ry="2.5" style="stroke:#181818;stroke-width:0.5;" width="367.9746" x="608.12" y="615.53"/><ellipse cx="740.3646" cy="631.53" fill="#ADD1B2" rx="11" ry="11" style="stroke:#181818;stroke-width:1;"/><path d="M743.3334,637.1706 Q742.7553,637.4675 742.1146,637.6081 Q741.474,637.7644 740.7709,637.7644 Q738.2709,637.7644 736.9428,636.1238 Q735.6303,634.4675 735.6303,631.3425 Q735.6303,628.2175 736.9428,626.5613 Q738.2709,624.905 740.7709,624.905 Q741.474,624.905 742.1146,625.0613 Q742.7709,625.2175 743.3334,625.5144 L743.3334,628.2331 Q742.7084,627.655 742.1146,627.3894 Q741.5209,627.1081 740.8959,627.1081 Q739.5521,627.1081 738.8646,628.1863 Q738.1771,629.2488 738.1771,631.3425 Q738.1771,633.4363 738.8646,634.5144 Q739.5521,635.5769 740.8959,635.5769 Q741.5209,635.5769 742.1146,635.3113 Q742.7084,635.03 743.3334,634.4519 L743.3334,637.1706 Z " fill="#000000"/><text fill="#000000" font-family="sans-serif" font-size="14" lengthAdjust="spacing" textLength="94.9854" x="760.8646" y="636.3767">UserStateTag</text><line style="stroke:#181818;stroke-width:0.5;" x1="609.12" x2="975.0946" y1="647.53" y2="647.53"/><ellipse cx="619.12" cy="661.1784" fill="none" rx="3" ry="3" style="stroke:#038048;stroke-width:1;"/><text fill="#000000" font-family="sans-serif" font-size="14" lengthAdjust="spacing" textLength="191.1191" x="628.12" y="664.5251">user_state_id: Integer &#171;FK&#187;</text><ellipse cx="619.12" cy="677.4753" fill="none" rx="3" ry="3" style="stroke:#038048;stroke-width:1;"/><text fill="#000000" font-family="sans-serif" font-size="14" lengthAdjust="spacing" textLength="141.0732" x="628.12" y="680.822">tag_id: Integer &#171;FK&#187;</text><line style="stroke:#181818;stroke-width:0.5;" x1="609.12" x2="975.0946" y1="688.1238" y2="688.1238"/><ellipse cx="619.12" cy="701.7722" fill="#84BE84" rx="3" ry="3" style="stroke:#038048;stroke-width:1;"/><text fill="#000000" font-family="sans-serif" font-size="14" lengthAdjust="spacing" textLength="333.3203" x="628.12" y="705.1189">assignTag(userState: UserState, tag: Tag): void</text><ellipse cx="619.12" cy="718.0691" fill="#84BE84" rx="3" ry="3" style="stroke:#038048;stroke-width:1;"/><text fill="#000000" font-family="sans-serif" font-size="14" lengthAdjust="spacing" textLength="341.9746" x="628.12" y="721.4157">removeTag(userState: UserState, tag: Tag): void</text></g><!--class UserEmotionalTag--><g class="entity" data-entity="UserEmotionalTag" data-source-line="77" data-uid="ent0008" id="entity_UserEmotionalTag"><rect fill="#F1F1F1" height="113.1875" rx="2.5" ry="2.5" style="stroke:#181818;stroke-width:0.5;" width="581.8096" x="1128.21" y="615.53"/><ellipse cx="1350.7334" cy="631.53" fill="#ADD1B2" rx="11" ry="11" style="stroke:#181818;stroke-width:1;"/><path d="M1353.7022,637.1706 Q1353.1241,637.4675 1352.4834,637.6081 Q1351.8428,637.7644 1351.1397,637.7644 Q1348.6397,637.7644 1347.3116,636.1238 Q1345.9991,634.4675 1345.9991,631.3425 Q1345.9991,628.2175 1347.3116,626.5613 Q1348.6397,624.905 1351.1397,624.905 Q1351.8428,624.905 1352.4834,625.0613 Q1353.1397,625.2175 1353.7022,625.5144 L1353.7022,628.2331 Q1353.0772,627.655 1352.4834,627.3894 Q1351.8897,627.1081 1351.2647,627.1081 Q1349.9209,627.1081 1349.2334,628.1863 Q1348.5459,629.2488 1348.5459,631.3425 Q1348.5459,633.4363 1349.2334,634.5144 Q1349.9209,635.5769 1351.2647,635.5769 Q1351.8897,635.5769 1352.4834,635.3113 Q1353.0772,635.03 1353.7022,634.4519 L1353.7022,637.1706 Z " fill="#000000"/><text fill="#000000" font-family="sans-serif" font-size="14" lengthAdjust="spacing" textLength="128.2627" x="1371.2334" y="636.3767">UserEmotionalTag</text><line style="stroke:#181818;stroke-width:0.5;" x1="1129.21" x2="1709.0196" y1="647.53" y2="647.53"/><ellipse cx="1139.21" cy="661.1784" fill="none" rx="3" ry="3" style="stroke:#038048;stroke-width:1;"/><text fill="#000000" font-family="sans-serif" font-size="14" lengthAdjust="spacing" textLength="191.1191" x="1148.21" y="664.5251">user_state_id: Integer &#171;FK&#187;</text><ellipse cx="1139.21" cy="677.4753" fill="none" rx="3" ry="3" style="stroke:#038048;stroke-width:1;"/><text fill="#000000" font-family="sans-serif" font-size="14" lengthAdjust="spacing" textLength="218.1758" x="1148.21" y="680.822">emotional_tag_id: Integer &#171;FK&#187;</text><line style="stroke:#181818;stroke-width:0.5;" x1="1129.21" x2="1709.0196" y1="688.1238" y2="688.1238"/><ellipse cx="1139.21" cy="701.7722" fill="#84BE84" rx="3" ry="3" style="stroke:#038048;stroke-width:1;"/><text fill="#000000" font-family="sans-serif" font-size="14" lengthAdjust="spacing" textLength="547.1553" x="1148.21" y="705.1189">assignEmotionalTag(userState: UserState, emotionalTag: EmotionalTag): void</text><ellipse cx="1139.21" cy="718.0691" fill="#84BE84" rx="3" ry="3" style="stroke:#038048;stroke-width:1;"/><text fill="#000000" font-family="sans-serif" font-size="14" lengthAdjust="spacing" textLength="555.8096" x="1148.21" y="721.4157">removeEmotionalTag(userState: UserState, emotionalTag: EmotionalTag): void</text></g><!--link User to Friend--><g class="link" data-entity-1="User" data-entity-2="Friend" data-source-line="87" data-uid="lnk9" id="link_User_Friend"><path codeLine="87" d="M221.2,267 C215.34,298.61 209.24,331.53 203.95,360.08" fill="none" id="User-Friend" style="stroke:#181818;stroke-width:1;"/><polygon fill="#000000" points="220.1989,310.3427,224.7368,301.9846,218.9574,300.9135,220.1989,310.3427" style="stroke:#000000;stroke-width:1;"/><text fill="#000000" font-family="sans-serif" font-size="13" lengthAdjust="spacing" textLength="57.0527" x="230.11" y="309.9269">friend_of</text><text fill="#000000" font-family="sans-serif" font-size="13" lengthAdjust="spacing" textLength="8.271" x="211.5942" y="287.024">1</text><text fill="#000000" font-family="sans-serif" font-size="13" lengthAdjust="spacing" textLength="23.0356" x="181.2599" y="348.9834">0..*</text></g><!--link User to UserState--><g class="link" data-entity-1="User" data-entity-2="UserState" data-source-line="88" data-uid="lnk10" id="link_User_UserState"><path codeLine="88" d="M483.64,228.62 C578.88,264.83 688.71,306.59 785.5,343.39" fill="none" id="User-UserState" style="stroke:#181818;stroke-width:1;"/><polygon fill="#000000" points="700.7836,307.2034,693.3734,301.2418,691.2845,306.7359,700.7836,307.2034" style="stroke:#000000;stroke-width:1;"/><text fill="#000000" font-family="sans-serif" font-size="13" lengthAdjust="spacing" textLength="22.9785" x="705.11" y="309.9269">has</text><text fill="#000000" font-family="sans-serif" font-size="13" lengthAdjust="spacing" textLength="8.271" x="490.8441" y="228.1883">1</text><text fill="#000000" font-family="sans-serif" font-size="13" lengthAdjust="spacing" textLength="23.0356" x="746.2847" y="334.0439">0..*</text></g><!--link UserState to UserStateTag--><g class="link" data-entity-1="UserState" data-entity-2="UserStateTag" data-source-line="89" data-uid="lnk11" id="link_UserState_UserStateTag"><path codeLine="89" d="M935.3,538.95 C907.14,564.94 877.63,592.19 852.76,615.14" fill="none" id="UserState-UserStateTag" style="stroke:#181818;stroke-width:1;"/><polygon fill="#000000" points="903.436,580.4878,912.0758,576.5123,908.089,572.1932,903.436,580.4878" style="stroke:#000000;stroke-width:1;"/><text fill="#000000" font-family="sans-serif" font-size="13" lengthAdjust="spacing" textLength="79.8979" x="916.11" y="581.5969">tagged_with</text><text fill="#000000" font-family="sans-serif" font-size="13" lengthAdjust="spacing" textLength="8.271" x="919.3188" y="558.7514">1</text><text fill="#000000" font-family="sans-serif" font-size="13" lengthAdjust="spacing" textLength="23.0356" x="835.7527" y="604.356">0..*</text></g><!--link Tag to UserStateTag--><g class="link" data-entity-1="Tag" data-entity-2="UserStateTag" data-source-line="90" data-uid="lnk12" id="link_Tag_UserStateTag"><path codeLine="90" d="M622.24,514.32 C657.59,546.95 698.74,584.93 731.68,615.34" fill="none" id="Tag-UserStateTag" style="stroke:#181818;stroke-width:1;"/><polygon fill="#000000" points="706.784,580.4878,702.131,572.1932,698.1442,576.5123,706.784,580.4878" style="stroke:#000000;stroke-width:1;"/><text fill="#000000" font-family="sans-serif" font-size="13" lengthAdjust="spacing" textLength="49.6133" x="712.11" y="581.5969">used_in</text><text fill="#000000" font-family="sans-serif" font-size="13" lengthAdjust="spacing" textLength="8.271" x="621.3182" y="534.0773">1</text><text fill="#000000" font-family="sans-serif" font-size="13" lengthAdjust="spacing" textLength="23.0356" x="699.916" y="604.5804">0..*</text></g><!--link UserState to UserEmotionalTag--><g class="link" data-entity-1="UserState" data-entity-2="UserEmotionalTag" data-source-line="91" data-uid="lnk13" id="link_UserState_UserEmotionalTag"><path codeLine="91" d="M1200.29,538.95 C1243.32,564.94 1288.42,592.19 1326.42,615.14" fill="none" id="UserState-UserEmotionalTag" style="stroke:#181818;stroke-width:1;"/><polygon fill="#000000" points="1284.3898,579.6816,1278.1672,572.4893,1275.128,577.5205,1284.3898,579.6816" style="stroke:#000000;stroke-width:1;"/><text fill="#000000" font-family="sans-serif" font-size="13" lengthAdjust="spacing" textLength="162.7983" x="1289.11" y="581.5969">emotionally_tagged_with</text><text fill="#000000" font-family="sans-serif" font-size="13" lengthAdjust="spacing" textLength="8.271" x="1203.769" y="558.7514">1</text><text fill="#000000" font-family="sans-serif" font-size="13" lengthAdjust="spacing" textLength="23.0356" x="1290.7234" y="604.356">0..*</text></g><!--link EmotionalTag to UserEmotionalTag--><g class="link" data-entity-1="EmotionalTag" data-entity-2="UserEmotionalTag" data-source-line="92" data-uid="lnk14" id="link_EmotionalTag_UserEmotionalTag"><path codeLine="92" d="M1499.25,514.32 C1482.57,546.95 1463.16,584.93 1447.62,615.34" fill="none" id="EmotionalTag-UserEmotionalTag" style="stroke:#181818;stroke-width:1;"/><polygon fill="#000000" points="1473.8345,581.5486,1480.5678,574.832,1475.3339,572.157,1473.8345,581.5486" style="stroke:#000000;stroke-width:1;"/><text fill="#000000" font-family="sans-serif" font-size="13" lengthAdjust="spacing" textLength="49.6133" x="1485.11" y="581.5969">used_in</text><text fill="#000000" font-family="sans-serif" font-size="13" lengthAdjust="spacing" textLength="8.271" x="1487.3682" y="534.0773">1</text><text fill="#000000" font-family="sans-serif" font-size="13" lengthAdjust="spacing" textLength="23.0356" x="1426.6947" y="604.5804">0..*</text></g><!--SRC=[vLPVIzn047-_Jp7SYzSsIlKno3qKb9RsGTG-X-KonYr9zjZidPLIg1LAYr3fU_4pYDLwjAVz2fjlrDdDNVvSZ6T1yA5m1ydCxCpyVh_PpIw0Fj5_qW_wGf_J_pVzh_H8Nu3-HI-dwK5weA_r6P3j4jOs5obgf4_r3rfngiTwd1wrUY5B4dYTe8HtBO0dt7VXHQmm8CFgwiRBRjTO1-IFMOGkR2d9uy3OC68yB1lwb6bFID_RPSck2zluLXbpJo9Jw7jCaOr7c2WMzMsfn6D-n6CNdWaH8eidnhx4Y0-Yifb-2w2_wulq8m4wJuyoI7KyaD6HVffGScKNd3bWcRYcjpEJX9YXf_Gm_Pf-iOGPSiOcjQLnP3e9HS3ZJWMb0rECKykZIlEqH0nKXun3mNrZaHZmHA7ip3BemFpCqoJeSxKXnGuFiPpRnn0Ltk0Oz0F9VDmM6vR9EFUzRqtqNfSSOpzJt7Isx5LrNo_fljBW8wLw15nwDi6iY8LhvQ65PBwVuRKYk7ROAn95OeYtHGmvxcN-BSKKwSbxIPrJiyZuSTv6Qk1poC81vevCuAGdULzn4S_VJW_1hCGUJUnQ94oBBBJeErKS3bHGr6RRS3j9y9oO5NBVCFkA7bTpGhl5j4z2DstXJed8cUtI6EV0F_INQxlDWjjKhH-DuWtF9SkK-KRyNngYqoDpG8yBeGfLExCdX4rJuooZeW7zeE-pgjE1EwJDeUPg_aUOyqdBCTjzcXXJmsvLBBZPSnVaL9C7CHMpvusjx1PDE439NJDpjLFgxaigsEgQpiM7qoNUFI0jrs_e7qiXRcK8QoJSIpRYXve_eLwlwCpxdDsSqcCBGF-azW_BboXpT8vQzfRKNcx3uYAqdoujFMvFFwGkxDW7J-n0zwQuukFW0bsF9a6PfI7IQEKQNGCwxVUusgL5ndPhED7XUpoUaxyo3sx1LhZlLUjL0kVcoOl_1G00]--></g></svg>